<?xml version="1.0" encoding="UTF-8"?>
<!DOCTYPE svg PUBLIC "-//W3C//DTD SVG 1.1//EN" "http://www.w3.org/Graphics/SVG/1.1/DTD/svg11.dtd">
<svg xmlns="http://www.w3.org/2000/svg" version="1.1" width="32px" height="32px" style="shape-rendering:geometricPrecision; text-rendering:geometricPrecision; image-rendering:optimizeQuality; fill-rule:evenodd; clip-rule:evenodd" xmlns:xlink="http://www.w3.org/1999/xlink">
<g><path style="opacity:0.791" fill="#ff9b00" d="M 27.5,8.5 C 24.9407,8.19845 22.6074,8.53178 20.5,9.5C 17.6146,9.8064 14.9479,9.47307 12.5,8.5C 13.4552,6.25429 14.1218,3.92095 14.5,1.5C 16.5442,0.221607 18.5442,0.388274 20.5,2C 22.3359,3.419 24.3359,4.58566 26.5,5.5C 27.3857,6.32496 27.719,7.32496 27.5,8.5 Z"/></g>
<g><path style="opacity:0.862" fill="#ff3946" d="M 14.5,1.5 C 14.1218,3.92095 13.4552,6.25429 12.5,8.5C 11.291,10.9408 9.62435,12.9408 7.5,14.5C 5.60534,13.027 3.93867,11.3603 2.5,9.5C 2.33003,8.17793 2.66337,7.01127 3.5,6C 6.97125,3.92806 10.6379,2.42806 14.5,1.5 Z"/></g>
<g><path style="opacity:0.948" fill="#e6e400" d="M 27.5,8.5 C 28.4959,8.41423 29.3292,8.74756 30,9.5C 30.6667,13.1667 30.6667,16.8333 30,20.5C 29.6174,21.056 29.1174,21.3893 28.5,21.5C 27.194,19.5273 25.5273,17.8606 23.5,16.5C 22.0427,14.3718 21.0427,12.0384 20.5,9.5C 22.6074,8.53178 24.9407,8.19845 27.5,8.5 Z"/></g>
<g><path style="opacity:0.894" fill="#fe4bad" d="M 2.5,9.5 C 3.93867,11.3603 5.60534,13.027 7.5,14.5C 8.86111,16.8505 10.1944,19.1838 11.5,21.5C 8.90391,22.2653 6.23725,22.5987 3.5,22.5C 2.19989,20.777 1.53323,18.6103 1.5,16C 1.50393,13.6392 1.83726,11.4726 2.5,9.5 Z"/></g>
<g><path style="opacity:0.836" fill="#04d35e" d="M 23.5,16.5 C 25.5273,17.8606 27.194,19.5273 28.5,21.5C 28.67,22.8221 28.3366,23.9887 27.5,25C 24.0288,27.0719 20.3621,28.5719 16.5,29.5C 17.5,26.8333 18.5,24.1667 19.5,21.5C 20.1447,19.1737 21.478,17.507 23.5,16.5 Z"/></g>
<g><path style="opacity:0.82" fill="#0fa6fd" d="M 11.5,21.5 C 14.1667,21.5 16.8333,21.5 19.5,21.5C 18.5,24.1667 17.5,26.8333 16.5,29.5C 15.2618,30.4124 13.9285,30.5791 12.5,30C 10.3295,28.4138 7.99619,27.0804 5.5,26C 4.17723,25.1841 3.51056,24.0174 3.5,22.5C 6.23725,22.5987 8.90391,22.2653 11.5,21.5 Z"/></g>
</svg>
