<?xml version="1.0" encoding="UTF-8"?>
<svg xmlns="http://www.w3.org/2000/svg" xmlns:xlink="http://www.w3.org/1999/xlink" width="15px" height="15px" viewBox="0 0 15 15" version="1.1">
<defs>
<filter id="alpha" filterUnits="objectBoundingBox" x="0%" y="0%" width="100%" height="100%">
  <feColorMatrix type="matrix" in="SourceGraphic" values="0 0 0 0 1 0 0 0 0 1 0 0 0 0 1 0 0 0 1 0"/>
</filter>
<mask id="mask0">
  <g filter="url(#alpha)">
<rect x="0" y="0" width="15" height="15" style="fill:rgb(0%,0%,0%);fill-opacity:0.792157;stroke:none;"/>
  </g>
</mask>
<clipPath id="clip1">
  <rect x="0" y="0" width="15" height="15"/>
</clipPath>
<g id="surface5" clip-path="url(#clip1)">
<path style=" stroke:none;fill-rule:evenodd;fill:rgb(100%,60.784316%,0%);fill-opacity:1;" d="M 12.890625 3.984375 C 11.691406 3.84375 10.597656 4 9.609375 4.453125 C 8.257812 4.597656 7.007812 4.441406 5.859375 3.984375 C 6.308594 2.933594 6.621094 1.839844 6.796875 0.703125 C 7.753906 0.105469 8.691406 0.183594 9.609375 0.9375 C 10.46875 1.601562 11.40625 2.148438 12.421875 2.578125 C 12.835938 2.964844 12.992188 3.433594 12.890625 3.984375 Z M 12.890625 3.984375 "/>
</g>
<mask id="mask1">
  <g filter="url(#alpha)">
<rect x="0" y="0" width="15" height="15" style="fill:rgb(0%,0%,0%);fill-opacity:0.862745;stroke:none;"/>
  </g>
</mask>
<clipPath id="clip2">
  <rect x="0" y="0" width="15" height="15"/>
</clipPath>
<g id="surface8" clip-path="url(#clip2)">
<path style=" stroke:none;fill-rule:evenodd;fill:rgb(100%,22.352941%,27.450982%);fill-opacity:1;" d="M 6.796875 0.703125 C 6.621094 1.839844 6.308594 2.933594 5.859375 3.984375 C 5.292969 5.128906 4.511719 6.066406 3.515625 6.796875 C 2.628906 6.105469 1.847656 5.324219 1.171875 4.453125 C 1.09375 3.832031 1.25 3.285156 1.640625 2.8125 C 3.269531 1.839844 4.988281 1.136719 6.796875 0.703125 Z M 6.796875 0.703125 "/>
</g>
<mask id="mask2">
  <g filter="url(#alpha)">
<rect x="0" y="0" width="15" height="15" style="fill:rgb(0%,0%,0%);fill-opacity:0.94902;stroke:none;"/>
  </g>
</mask>
<clipPath id="clip3">
  <rect x="0" y="0" width="15" height="15"/>
</clipPath>
<g id="surface11" clip-path="url(#clip3)">
<path style=" stroke:none;fill-rule:evenodd;fill:rgb(90.196079%,89.411765%,0%);fill-opacity:1;" d="M 12.890625 3.984375 C 13.359375 3.945312 13.75 4.101562 14.0625 4.453125 C 14.375 6.171875 14.375 7.890625 14.0625 9.609375 C 13.882812 9.871094 13.648438 10.027344 13.359375 10.078125 C 12.746094 9.152344 11.964844 8.371094 11.015625 7.734375 C 10.332031 6.738281 9.863281 5.644531 9.609375 4.453125 C 10.597656 4 11.691406 3.84375 12.890625 3.984375 Z M 12.890625 3.984375 "/>
</g>
<mask id="mask3">
  <g filter="url(#alpha)">
<rect x="0" y="0" width="15" height="15" style="fill:rgb(0%,0%,0%);fill-opacity:0.894118;stroke:none;"/>
  </g>
</mask>
<clipPath id="clip4">
  <rect x="0" y="0" width="15" height="15"/>
</clipPath>
<g id="surface14" clip-path="url(#clip4)">
<path style=" stroke:none;fill-rule:evenodd;fill:rgb(99.607843%,29.411766%,67.843139%);fill-opacity:1;" d="M 1.171875 4.453125 C 1.847656 5.324219 2.628906 6.105469 3.515625 6.796875 C 4.152344 7.898438 4.777344 8.992188 5.390625 10.078125 C 4.171875 10.4375 2.921875 10.59375 1.640625 10.546875 C 1.03125 9.738281 0.71875 8.722656 0.703125 7.5 C 0.703125 6.394531 0.859375 5.378906 1.171875 4.453125 Z M 1.171875 4.453125 "/>
</g>
<mask id="mask4">
  <g filter="url(#alpha)">
<rect x="0" y="0" width="15" height="15" style="fill:rgb(0%,0%,0%);fill-opacity:0.835294;stroke:none;"/>
  </g>
</mask>
<clipPath id="clip5">
  <rect x="0" y="0" width="15" height="15"/>
</clipPath>
<g id="surface17" clip-path="url(#clip5)">
<path style=" stroke:none;fill-rule:evenodd;fill:rgb(1.568628%,82.745099%,36.862746%);fill-opacity:1;" d="M 11.015625 7.734375 C 11.964844 8.371094 12.746094 9.152344 13.359375 10.078125 C 13.4375 10.699219 13.28125 11.246094 12.890625 11.71875 C 11.261719 12.691406 9.542969 13.394531 7.734375 13.828125 C 8.203125 12.578125 8.671875 11.328125 9.140625 10.078125 C 9.441406 8.988281 10.066406 8.207031 11.015625 7.734375 Z M 11.015625 7.734375 "/>
</g>
<mask id="mask5">
  <g filter="url(#alpha)">
<rect x="0" y="0" width="15" height="15" style="fill:rgb(0%,0%,0%);fill-opacity:0.819608;stroke:none;"/>
  </g>
</mask>
<clipPath id="clip6">
  <rect x="0" y="0" width="15" height="15"/>
</clipPath>
<g id="surface20" clip-path="url(#clip6)">
<path style=" stroke:none;fill-rule:evenodd;fill:rgb(5.882353%,65.098041%,99.215686%);fill-opacity:1;" d="M 5.390625 10.078125 C 6.640625 10.078125 7.890625 10.078125 9.140625 10.078125 C 8.671875 11.328125 8.203125 12.578125 7.734375 13.828125 C 7.152344 14.253906 6.527344 14.332031 5.859375 14.0625 C 4.84375 13.320312 3.75 12.695312 2.578125 12.1875 C 1.957031 11.804688 1.644531 11.257812 1.640625 10.546875 C 2.921875 10.59375 4.171875 10.4375 5.390625 10.078125 Z M 5.390625 10.078125 "/>
</g>
</defs>
<g id="surface1">
<use xlink:href="#surface5" mask="url(#mask0)"/>
<use xlink:href="#surface8" mask="url(#mask1)"/>
<use xlink:href="#surface11" mask="url(#mask2)"/>
<use xlink:href="#surface14" mask="url(#mask3)"/>
<use xlink:href="#surface17" mask="url(#mask4)"/>
<use xlink:href="#surface20" mask="url(#mask5)"/>
</g>
</svg>
